<mxfile host="Electron" modified="2024-01-18T15:33:49.499Z" agent="Mozilla/5.0 (Windows NT 10.0; Win64; x64) AppleWebKit/537.36 (KHTML, like Gecko) draw.io/22.1.18 Chrome/120.0.6099.199 Electron/28.1.2 Safari/537.36" etag="mPXPAuQ5Gbah1o_IlTbU" version="22.1.18" type="device">
  <diagram id="axaJpA255Qp3xF8ieOo0" name="Dominio Transitos">
    <mxGraphModel dx="2457" dy="1470" grid="1" gridSize="10" guides="1" tooltips="1" connect="1" arrows="1" fold="1" page="1" pageScale="1" pageWidth="1169" pageHeight="827" math="0" shadow="0">
      <root>
        <mxCell id="0" />
        <mxCell id="1" parent="0" />
        <mxCell id="pYLswrqZYhPvGG6OncnL-24" value="&lt;h1&gt;&lt;b&gt;&lt;font style=&quot;font-size: 24px;&quot;&gt;Diagrama De Dominios&lt;/font&gt;&lt;/b&gt;&lt;/h1&gt;" style="text;html=1;strokeColor=none;fillColor=none;align=center;verticalAlign=middle;whiteSpace=wrap;rounded=0;" parent="1" vertex="1">
          <mxGeometry x="620" y="-300" width="310" height="30" as="geometry" />
        </mxCell>
        <mxCell id="sDX3-OLwFtqE5IQQ1U1f-1" value=".." style="text;html=1;strokeColor=none;fillColor=none;align=center;verticalAlign=middle;whiteSpace=wrap;rounded=0;" parent="1" vertex="1">
          <mxGeometry x="-1140" y="20" width="20" height="30" as="geometry" />
        </mxCell>
        <mxCell id="EbXu0sz_ChYEm4_ZpIHF-36" value="&amp;lt;entidad&amp;gt;&lt;br&gt;&lt;b&gt;Usuario&lt;/b&gt;" style="swimlane;fontStyle=0;align=center;verticalAlign=top;childLayout=stackLayout;horizontal=1;startSize=40;horizontalStack=0;resizeParent=1;resizeParentMax=0;resizeLast=0;collapsible=0;marginBottom=0;html=1;fillColor=#E6FFCC;" parent="1" vertex="1">
          <mxGeometry y="160" width="560" height="408" as="geometry" />
        </mxCell>
        <mxCell id="EbXu0sz_ChYEm4_ZpIHF-37" value="Entidad que describe los datos relacionados a los usuarios." style="text;html=1;strokeColor=none;fillColor=none;align=left;verticalAlign=middle;spacingLeft=4;spacingRight=4;overflow=hidden;rotatable=0;points=[[0,0.5],[1,0.5]];portConstraint=eastwest;" parent="EbXu0sz_ChYEm4_ZpIHF-36" vertex="1">
          <mxGeometry y="40" width="560" height="20" as="geometry" />
        </mxCell>
        <mxCell id="EbXu0sz_ChYEm4_ZpIHF-38" value="" style="line;strokeWidth=1;fillColor=none;align=left;verticalAlign=middle;spacingTop=-1;spacingLeft=3;spacingRight=3;rotatable=0;labelPosition=right;points=[];portConstraint=eastwest;" parent="EbXu0sz_ChYEm4_ZpIHF-36" vertex="1">
          <mxGeometry y="60" width="560" height="8" as="geometry" />
        </mxCell>
        <mxCell id="EbXu0sz_ChYEm4_ZpIHF-39" value="&lt;b&gt;Atributos&lt;/b&gt;" style="text;html=1;strokeColor=none;fillColor=none;align=center;verticalAlign=middle;spacingLeft=4;spacingRight=4;overflow=hidden;rotatable=0;points=[[0,0.5],[1,0.5]];portConstraint=eastwest;" parent="EbXu0sz_ChYEm4_ZpIHF-36" vertex="1">
          <mxGeometry y="68" width="560" height="20" as="geometry" />
        </mxCell>
        <mxCell id="EbXu0sz_ChYEm4_ZpIHF-40" value="Id - Guid&amp;nbsp;- Sirve como identificador único, generado automaticamente." style="text;html=1;strokeColor=none;fillColor=none;align=left;verticalAlign=middle;spacingLeft=4;spacingRight=4;overflow=hidden;rotatable=0;points=[[0,0.5],[1,0.5]];portConstraint=eastwest;" parent="EbXu0sz_ChYEm4_ZpIHF-36" vertex="1">
          <mxGeometry y="88" width="560" height="20" as="geometry" />
        </mxCell>
        <mxCell id="r7IAeEADwwYIqvJ-qnuJ-2" value="Rut - Texto - Rut identificador de la persona detrás del usuario." style="text;html=1;strokeColor=none;fillColor=none;align=left;verticalAlign=middle;spacingLeft=4;spacingRight=4;overflow=hidden;rotatable=0;points=[[0,0.5],[1,0.5]];portConstraint=eastwest;" vertex="1" parent="EbXu0sz_ChYEm4_ZpIHF-36">
          <mxGeometry y="108" width="560" height="20" as="geometry" />
        </mxCell>
        <mxCell id="4HUbsXlRWPGENK0A7-9K-11" value="Nombre - Texto - Nombre de la persona detrás del usuario." style="text;html=1;strokeColor=none;fillColor=none;align=left;verticalAlign=middle;spacingLeft=4;spacingRight=4;overflow=hidden;rotatable=0;points=[[0,0.5],[1,0.5]];portConstraint=eastwest;" parent="EbXu0sz_ChYEm4_ZpIHF-36" vertex="1">
          <mxGeometry y="128" width="560" height="20" as="geometry" />
        </mxCell>
        <mxCell id="4HUbsXlRWPGENK0A7-9K-10" value="ApellidoPaterno - Texto - Apellido paterno de la persona detrás del usuario." style="text;html=1;strokeColor=none;fillColor=none;align=left;verticalAlign=middle;spacingLeft=4;spacingRight=4;overflow=hidden;rotatable=0;points=[[0,0.5],[1,0.5]];portConstraint=eastwest;" parent="EbXu0sz_ChYEm4_ZpIHF-36" vertex="1">
          <mxGeometry y="148" width="560" height="20" as="geometry" />
        </mxCell>
        <mxCell id="4HUbsXlRWPGENK0A7-9K-1" value="Contrasena - Texto - Contraseña relacionada al usuario." style="text;html=1;strokeColor=none;fillColor=none;align=left;verticalAlign=middle;spacingLeft=4;spacingRight=4;overflow=hidden;rotatable=0;points=[[0,0.5],[1,0.5]];portConstraint=eastwest;" parent="EbXu0sz_ChYEm4_ZpIHF-36" vertex="1">
          <mxGeometry y="168" width="560" height="20" as="geometry" />
        </mxCell>
        <mxCell id="4HUbsXlRWPGENK0A7-9K-2" value="Rol - Texto - El rol del usuario puede ser &quot;ADMINISTRADOR&quot; o &quot;USUARIO&quot;." style="text;html=1;strokeColor=none;fillColor=none;align=left;verticalAlign=middle;spacingLeft=4;spacingRight=4;overflow=hidden;rotatable=0;points=[[0,0.5],[1,0.5]];portConstraint=eastwest;" parent="EbXu0sz_ChYEm4_ZpIHF-36" vertex="1">
          <mxGeometry y="188" width="560" height="20" as="geometry" />
        </mxCell>
        <mxCell id="EbXu0sz_ChYEm4_ZpIHF-49" value="" style="line;strokeWidth=1;fillColor=none;align=left;verticalAlign=middle;spacingTop=-1;spacingLeft=3;spacingRight=3;rotatable=0;labelPosition=right;points=[];portConstraint=eastwest;" parent="EbXu0sz_ChYEm4_ZpIHF-36" vertex="1">
          <mxGeometry y="208" width="560" height="8" as="geometry" />
        </mxCell>
        <mxCell id="EbXu0sz_ChYEm4_ZpIHF-50" value="&lt;b&gt;Comandos&lt;/b&gt;" style="text;html=1;strokeColor=none;fillColor=none;align=center;verticalAlign=middle;spacingLeft=4;spacingRight=4;overflow=hidden;rotatable=0;points=[[0,0.5],[1,0.5]];portConstraint=eastwest;" parent="EbXu0sz_ChYEm4_ZpIHF-36" vertex="1">
          <mxGeometry y="216" width="560" height="20" as="geometry" />
        </mxCell>
        <mxCell id="r7IAeEADwwYIqvJ-qnuJ-7" value="Crear(rut, nombre, apellidoPaterno, contrasena, rol) : Verdadero/falso" style="text;html=1;strokeColor=none;fillColor=none;align=left;verticalAlign=middle;spacingLeft=4;spacingRight=4;overflow=hidden;rotatable=0;points=[[0,0.5],[1,0.5]];portConstraint=eastwest;" vertex="1" parent="EbXu0sz_ChYEm4_ZpIHF-36">
          <mxGeometry y="236" width="560" height="20" as="geometry" />
        </mxCell>
        <mxCell id="4HUbsXlRWPGENK0A7-9K-8" value="Modificar(id, rut, nombre, apellidoPaterno, contrasena, rol) : Verdadero/falso" style="text;html=1;strokeColor=none;fillColor=none;align=left;verticalAlign=middle;spacingLeft=4;spacingRight=4;overflow=hidden;rotatable=0;points=[[0,0.5],[1,0.5]];portConstraint=eastwest;" parent="EbXu0sz_ChYEm4_ZpIHF-36" vertex="1">
          <mxGeometry y="256" width="560" height="20" as="geometry" />
        </mxCell>
        <mxCell id="r7IAeEADwwYIqvJ-qnuJ-8" value="Eliminar(id) : Verdadero/falso" style="text;html=1;strokeColor=none;fillColor=none;align=left;verticalAlign=middle;spacingLeft=4;spacingRight=4;overflow=hidden;rotatable=0;points=[[0,0.5],[1,0.5]];portConstraint=eastwest;" vertex="1" parent="EbXu0sz_ChYEm4_ZpIHF-36">
          <mxGeometry y="276" width="560" height="20" as="geometry" />
        </mxCell>
        <mxCell id="EbXu0sz_ChYEm4_ZpIHF-54" value="" style="line;strokeWidth=1;fillColor=none;align=left;verticalAlign=middle;spacingTop=-1;spacingLeft=3;spacingRight=3;rotatable=0;labelPosition=right;points=[];portConstraint=eastwest;" parent="EbXu0sz_ChYEm4_ZpIHF-36" vertex="1">
          <mxGeometry y="296" width="560" height="8" as="geometry" />
        </mxCell>
        <mxCell id="EbXu0sz_ChYEm4_ZpIHF-55" value="&lt;b&gt;Consultas&lt;/b&gt;" style="text;html=1;strokeColor=none;fillColor=none;align=center;verticalAlign=middle;spacingLeft=4;spacingRight=4;overflow=hidden;rotatable=0;points=[[0,0.5],[1,0.5]];portConstraint=eastwest;" parent="EbXu0sz_ChYEm4_ZpIHF-36" vertex="1">
          <mxGeometry y="304" width="560" height="20" as="geometry" />
        </mxCell>
        <mxCell id="4HUbsXlRWPGENK0A7-9K-33" value="BuscaPorId(id) : &amp;lt;Usuario&amp;gt;" style="text;html=1;strokeColor=none;fillColor=none;align=left;verticalAlign=middle;spacingLeft=4;spacingRight=4;overflow=hidden;rotatable=0;points=[[0,0.5],[1,0.5]];portConstraint=eastwest;" parent="EbXu0sz_ChYEm4_ZpIHF-36" vertex="1">
          <mxGeometry y="324" width="560" height="22" as="geometry" />
        </mxCell>
        <mxCell id="r7IAeEADwwYIqvJ-qnuJ-9" value="BuscaPor_Rut_Contrasena(rut, contrasena) : &amp;lt;Usuario&amp;gt;" style="text;html=1;strokeColor=none;fillColor=none;align=left;verticalAlign=middle;spacingLeft=4;spacingRight=4;overflow=hidden;rotatable=0;points=[[0,0.5],[1,0.5]];portConstraint=eastwest;" vertex="1" parent="EbXu0sz_ChYEm4_ZpIHF-36">
          <mxGeometry y="346" width="560" height="20" as="geometry" />
        </mxCell>
        <mxCell id="4HUbsXlRWPGENK0A7-9K-35" value="BuscaPorRut(rut) : &amp;lt;Usuario&amp;gt;" style="text;html=1;strokeColor=none;fillColor=none;align=left;verticalAlign=middle;spacingLeft=4;spacingRight=4;overflow=hidden;rotatable=0;points=[[0,0.5],[1,0.5]];portConstraint=eastwest;" parent="EbXu0sz_ChYEm4_ZpIHF-36" vertex="1">
          <mxGeometry y="366" width="560" height="20" as="geometry" />
        </mxCell>
        <mxCell id="r7IAeEADwwYIqvJ-qnuJ-45" value="EsUsuarioAdministrador(id) : Verdadero/Falso" style="text;html=1;strokeColor=none;fillColor=none;align=left;verticalAlign=middle;spacingLeft=4;spacingRight=4;overflow=hidden;rotatable=0;points=[[0,0.5],[1,0.5]];portConstraint=eastwest;" vertex="1" parent="EbXu0sz_ChYEm4_ZpIHF-36">
          <mxGeometry y="386" width="560" height="22" as="geometry" />
        </mxCell>
        <mxCell id="4HUbsXlRWPGENK0A7-9K-3" value="&amp;lt;Enumeración&amp;gt;&lt;br&gt;RolUsuarioEnum" style="swimlane;fontStyle=0;align=center;verticalAlign=top;childLayout=stackLayout;horizontal=1;startSize=40;horizontalStack=0;resizeParent=1;resizeParentMax=0;resizeLast=0;collapsible=0;marginBottom=0;html=1;fillColor=#CCCCFF;" parent="1" vertex="1">
          <mxGeometry x="-240" y="340" width="170" height="80" as="geometry" />
        </mxCell>
        <mxCell id="4HUbsXlRWPGENK0A7-9K-4" value="ADMINISTRADOR" style="text;html=1;strokeColor=none;fillColor=none;align=left;verticalAlign=middle;spacingLeft=4;spacingRight=4;overflow=hidden;rotatable=0;points=[[0,0.5],[1,0.5]];portConstraint=eastwest;" parent="4HUbsXlRWPGENK0A7-9K-3" vertex="1">
          <mxGeometry y="40" width="170" height="20" as="geometry" />
        </mxCell>
        <mxCell id="4HUbsXlRWPGENK0A7-9K-5" value="USUARIO" style="text;html=1;strokeColor=none;fillColor=none;align=left;verticalAlign=middle;spacingLeft=4;spacingRight=4;overflow=hidden;rotatable=0;points=[[0,0.5],[1,0.5]];portConstraint=eastwest;" parent="4HUbsXlRWPGENK0A7-9K-3" vertex="1">
          <mxGeometry y="60" width="170" height="20" as="geometry" />
        </mxCell>
        <mxCell id="4HUbsXlRWPGENK0A7-9K-6" value="" style="endArrow=classic;html=1;rounded=0;entryX=-0.007;entryY=0.563;entryDx=0;entryDy=0;entryPerimeter=0;exitX=1;exitY=0.25;exitDx=0;exitDy=0;" parent="1" source="4HUbsXlRWPGENK0A7-9K-3" target="4HUbsXlRWPGENK0A7-9K-2" edge="1">
          <mxGeometry width="50" height="50" relative="1" as="geometry">
            <mxPoint x="-260" y="460" as="sourcePoint" />
            <mxPoint x="-210" y="410" as="targetPoint" />
          </mxGeometry>
        </mxCell>
        <mxCell id="4HUbsXlRWPGENK0A7-9K-36" value="&amp;lt;Entidad&amp;gt;&lt;br&gt;&lt;b&gt;Pais&lt;/b&gt;" style="swimlane;fontStyle=0;align=center;verticalAlign=top;childLayout=stackLayout;horizontal=1;startSize=40;horizontalStack=0;resizeParent=1;resizeParentMax=0;resizeLast=0;collapsible=0;marginBottom=0;html=1;fillColor=#E6FFCC;" parent="1" vertex="1">
          <mxGeometry x="740" y="-160" width="600" height="290" as="geometry" />
        </mxCell>
        <mxCell id="4HUbsXlRWPGENK0A7-9K-37" value="Entidad que describe los datos relacionados a los paises." style="text;html=1;strokeColor=none;fillColor=none;align=left;verticalAlign=middle;spacingLeft=4;spacingRight=4;overflow=hidden;rotatable=0;points=[[0,0.5],[1,0.5]];portConstraint=eastwest;" parent="4HUbsXlRWPGENK0A7-9K-36" vertex="1">
          <mxGeometry y="40" width="600" height="20" as="geometry" />
        </mxCell>
        <mxCell id="4HUbsXlRWPGENK0A7-9K-38" value="" style="line;strokeWidth=1;fillColor=none;align=left;verticalAlign=middle;spacingTop=-1;spacingLeft=3;spacingRight=3;rotatable=0;labelPosition=right;points=[];portConstraint=eastwest;" parent="4HUbsXlRWPGENK0A7-9K-36" vertex="1">
          <mxGeometry y="60" width="600" height="8" as="geometry" />
        </mxCell>
        <mxCell id="4HUbsXlRWPGENK0A7-9K-39" value="&lt;b&gt;Atributos&lt;/b&gt;" style="text;html=1;strokeColor=none;fillColor=none;align=center;verticalAlign=middle;spacingLeft=4;spacingRight=4;overflow=hidden;rotatable=0;points=[[0,0.5],[1,0.5]];portConstraint=eastwest;" parent="4HUbsXlRWPGENK0A7-9K-36" vertex="1">
          <mxGeometry y="68" width="600" height="20" as="geometry" />
        </mxCell>
        <mxCell id="4HUbsXlRWPGENK0A7-9K-40" value="Id - Guid&amp;nbsp;- Sirve como identificador único, generado automaticamente." style="text;html=1;strokeColor=none;fillColor=none;align=left;verticalAlign=middle;spacingLeft=4;spacingRight=4;overflow=hidden;rotatable=0;points=[[0,0.5],[1,0.5]];portConstraint=eastwest;" parent="4HUbsXlRWPGENK0A7-9K-36" vertex="1">
          <mxGeometry y="88" width="600" height="20" as="geometry" />
        </mxCell>
        <mxCell id="4HUbsXlRWPGENK0A7-9K-42" value="Nombre - Texto - Nombre del Pais" style="text;html=1;strokeColor=none;fillColor=none;align=left;verticalAlign=middle;spacingLeft=4;spacingRight=4;overflow=hidden;rotatable=0;points=[[0,0.5],[1,0.5]];portConstraint=eastwest;" parent="4HUbsXlRWPGENK0A7-9K-36" vertex="1">
          <mxGeometry y="108" width="600" height="20" as="geometry" />
        </mxCell>
        <mxCell id="4HUbsXlRWPGENK0A7-9K-47" value="" style="line;strokeWidth=1;fillColor=none;align=left;verticalAlign=middle;spacingTop=-1;spacingLeft=3;spacingRight=3;rotatable=0;labelPosition=right;points=[];portConstraint=eastwest;" parent="4HUbsXlRWPGENK0A7-9K-36" vertex="1">
          <mxGeometry y="128" width="600" height="8" as="geometry" />
        </mxCell>
        <mxCell id="4HUbsXlRWPGENK0A7-9K-48" value="&lt;b&gt;Comandos&lt;/b&gt;" style="text;html=1;strokeColor=none;fillColor=none;align=center;verticalAlign=middle;spacingLeft=4;spacingRight=4;overflow=hidden;rotatable=0;points=[[0,0.5],[1,0.5]];portConstraint=eastwest;" parent="4HUbsXlRWPGENK0A7-9K-36" vertex="1">
          <mxGeometry y="136" width="600" height="20" as="geometry" />
        </mxCell>
        <mxCell id="4HUbsXlRWPGENK0A7-9K-49" value="&lt;div&gt;Crear (nombrePais&lt;span style=&quot;background-color: initial;&quot;&gt;) : Verdadero/Falso&lt;/span&gt;&lt;/div&gt;" style="text;html=1;strokeColor=none;fillColor=none;align=left;verticalAlign=middle;spacingLeft=4;spacingRight=4;overflow=hidden;rotatable=0;points=[[0,0.5],[1,0.5]];portConstraint=eastwest;" parent="4HUbsXlRWPGENK0A7-9K-36" vertex="1">
          <mxGeometry y="156" width="600" height="24" as="geometry" />
        </mxCell>
        <mxCell id="4HUbsXlRWPGENK0A7-9K-50" value="&lt;div&gt;Modificar (id, nombre&lt;span style=&quot;background-color: initial;&quot;&gt;) : Verdadero/Falso&lt;/span&gt;&lt;/div&gt;" style="text;html=1;strokeColor=none;fillColor=none;align=left;verticalAlign=middle;spacingLeft=4;spacingRight=4;overflow=hidden;rotatable=0;points=[[0,0.5],[1,0.5]];portConstraint=eastwest;" parent="4HUbsXlRWPGENK0A7-9K-36" vertex="1">
          <mxGeometry y="180" width="600" height="20" as="geometry" />
        </mxCell>
        <mxCell id="4HUbsXlRWPGENK0A7-9K-51" value="&lt;div&gt;Eliminar (id&lt;span style=&quot;background-color: initial;&quot;&gt;) : Verdadero/Falso&lt;/span&gt;&lt;/div&gt;" style="text;html=1;strokeColor=none;fillColor=none;align=left;verticalAlign=middle;spacingLeft=4;spacingRight=4;overflow=hidden;rotatable=0;points=[[0,0.5],[1,0.5]];portConstraint=eastwest;" parent="4HUbsXlRWPGENK0A7-9K-36" vertex="1">
          <mxGeometry y="200" width="600" height="20" as="geometry" />
        </mxCell>
        <mxCell id="4HUbsXlRWPGENK0A7-9K-52" value="" style="line;strokeWidth=1;fillColor=none;align=left;verticalAlign=middle;spacingTop=-1;spacingLeft=3;spacingRight=3;rotatable=0;labelPosition=right;points=[];portConstraint=eastwest;" parent="4HUbsXlRWPGENK0A7-9K-36" vertex="1">
          <mxGeometry y="220" width="600" height="8" as="geometry" />
        </mxCell>
        <mxCell id="4HUbsXlRWPGENK0A7-9K-53" value="&lt;b&gt;Consultas&lt;/b&gt;" style="text;html=1;strokeColor=none;fillColor=none;align=center;verticalAlign=middle;spacingLeft=4;spacingRight=4;overflow=hidden;rotatable=0;points=[[0,0.5],[1,0.5]];portConstraint=eastwest;" parent="4HUbsXlRWPGENK0A7-9K-36" vertex="1">
          <mxGeometry y="228" width="600" height="20" as="geometry" />
        </mxCell>
        <mxCell id="4HUbsXlRWPGENK0A7-9K-54" value="BuscaPorId(id) : &amp;lt;Pais&amp;gt;" style="text;html=1;strokeColor=none;fillColor=none;align=left;verticalAlign=middle;spacingLeft=4;spacingRight=4;overflow=hidden;rotatable=0;points=[[0,0.5],[1,0.5]];portConstraint=eastwest;" parent="4HUbsXlRWPGENK0A7-9K-36" vertex="1">
          <mxGeometry y="248" width="600" height="22" as="geometry" />
        </mxCell>
        <mxCell id="P3TvTHMaY8ZSfnASYMqM-30" value="BuscaPorNombrePais(nombre) : &amp;lt;Pais&amp;gt;" style="text;html=1;strokeColor=none;fillColor=none;align=left;verticalAlign=middle;spacingLeft=4;spacingRight=4;overflow=hidden;rotatable=0;points=[[0,0.5],[1,0.5]];portConstraint=eastwest;" parent="4HUbsXlRWPGENK0A7-9K-36" vertex="1">
          <mxGeometry y="270" width="600" height="20" as="geometry" />
        </mxCell>
        <mxCell id="4HUbsXlRWPGENK0A7-9K-74" value="&amp;lt;entidad&amp;gt;&lt;br&gt;&lt;b&gt;Region&lt;/b&gt;" style="swimlane;fontStyle=0;align=center;verticalAlign=top;childLayout=stackLayout;horizontal=1;startSize=40;horizontalStack=0;resizeParent=1;resizeParentMax=0;resizeLast=0;collapsible=0;marginBottom=0;html=1;fillColor=#E6FFCC;" parent="1" vertex="1">
          <mxGeometry x="920" y="240" width="600" height="290" as="geometry" />
        </mxCell>
        <mxCell id="4HUbsXlRWPGENK0A7-9K-75" value="Entidad que describe los datos relacionados a las regiones." style="text;html=1;strokeColor=none;fillColor=none;align=left;verticalAlign=middle;spacingLeft=4;spacingRight=4;overflow=hidden;rotatable=0;points=[[0,0.5],[1,0.5]];portConstraint=eastwest;" parent="4HUbsXlRWPGENK0A7-9K-74" vertex="1">
          <mxGeometry y="40" width="600" height="20" as="geometry" />
        </mxCell>
        <mxCell id="4HUbsXlRWPGENK0A7-9K-76" value="" style="line;strokeWidth=1;fillColor=none;align=left;verticalAlign=middle;spacingTop=-1;spacingLeft=3;spacingRight=3;rotatable=0;labelPosition=right;points=[];portConstraint=eastwest;" parent="4HUbsXlRWPGENK0A7-9K-74" vertex="1">
          <mxGeometry y="60" width="600" height="8" as="geometry" />
        </mxCell>
        <mxCell id="4HUbsXlRWPGENK0A7-9K-77" value="&lt;b&gt;Atributos&lt;/b&gt;" style="text;html=1;strokeColor=none;fillColor=none;align=center;verticalAlign=middle;spacingLeft=4;spacingRight=4;overflow=hidden;rotatable=0;points=[[0,0.5],[1,0.5]];portConstraint=eastwest;" parent="4HUbsXlRWPGENK0A7-9K-74" vertex="1">
          <mxGeometry y="68" width="600" height="20" as="geometry" />
        </mxCell>
        <mxCell id="4HUbsXlRWPGENK0A7-9K-78" value="Id - Guid&amp;nbsp;- Sirve como identificador único, generado automaticamente." style="text;html=1;strokeColor=none;fillColor=none;align=left;verticalAlign=middle;spacingLeft=4;spacingRight=4;overflow=hidden;rotatable=0;points=[[0,0.5],[1,0.5]];portConstraint=eastwest;" parent="4HUbsXlRWPGENK0A7-9K-74" vertex="1">
          <mxGeometry y="88" width="600" height="20" as="geometry" />
        </mxCell>
        <mxCell id="4HUbsXlRWPGENK0A7-9K-141" value="IdPais - Guid&amp;nbsp;- Sirve como identificador, relacionado a un país." style="text;html=1;strokeColor=none;fillColor=none;align=left;verticalAlign=middle;spacingLeft=4;spacingRight=4;overflow=hidden;rotatable=0;points=[[0,0.5],[1,0.5]];portConstraint=eastwest;" parent="4HUbsXlRWPGENK0A7-9K-74" vertex="1">
          <mxGeometry y="108" width="600" height="20" as="geometry" />
        </mxCell>
        <mxCell id="4HUbsXlRWPGENK0A7-9K-79" value="Nombre - Texto - Nombre de la región" style="text;html=1;strokeColor=none;fillColor=none;align=left;verticalAlign=middle;spacingLeft=4;spacingRight=4;overflow=hidden;rotatable=0;points=[[0,0.5],[1,0.5]];portConstraint=eastwest;" parent="4HUbsXlRWPGENK0A7-9K-74" vertex="1">
          <mxGeometry y="128" width="600" height="20" as="geometry" />
        </mxCell>
        <mxCell id="4HUbsXlRWPGENK0A7-9K-80" value="" style="line;strokeWidth=1;fillColor=none;align=left;verticalAlign=middle;spacingTop=-1;spacingLeft=3;spacingRight=3;rotatable=0;labelPosition=right;points=[];portConstraint=eastwest;" parent="4HUbsXlRWPGENK0A7-9K-74" vertex="1">
          <mxGeometry y="148" width="600" height="8" as="geometry" />
        </mxCell>
        <mxCell id="4HUbsXlRWPGENK0A7-9K-81" value="&lt;b&gt;Comandos&lt;/b&gt;" style="text;html=1;strokeColor=none;fillColor=none;align=center;verticalAlign=middle;spacingLeft=4;spacingRight=4;overflow=hidden;rotatable=0;points=[[0,0.5],[1,0.5]];portConstraint=eastwest;" parent="4HUbsXlRWPGENK0A7-9K-74" vertex="1">
          <mxGeometry y="156" width="600" height="20" as="geometry" />
        </mxCell>
        <mxCell id="4HUbsXlRWPGENK0A7-9K-82" value="&lt;div&gt;Crear (nombrePais&lt;span style=&quot;background-color: initial;&quot;&gt;) : Verdadero/Falso&lt;/span&gt;&lt;/div&gt;" style="text;html=1;strokeColor=none;fillColor=none;align=left;verticalAlign=middle;spacingLeft=4;spacingRight=4;overflow=hidden;rotatable=0;points=[[0,0.5],[1,0.5]];portConstraint=eastwest;" parent="4HUbsXlRWPGENK0A7-9K-74" vertex="1">
          <mxGeometry y="176" width="600" height="16" as="geometry" />
        </mxCell>
        <mxCell id="4HUbsXlRWPGENK0A7-9K-83" value="&lt;div&gt;Modificar (id, nombre&lt;span style=&quot;background-color: initial;&quot;&gt;) : Verdadero/Falso&lt;/span&gt;&lt;/div&gt;" style="text;html=1;strokeColor=none;fillColor=none;align=left;verticalAlign=middle;spacingLeft=4;spacingRight=4;overflow=hidden;rotatable=0;points=[[0,0.5],[1,0.5]];portConstraint=eastwest;" parent="4HUbsXlRWPGENK0A7-9K-74" vertex="1">
          <mxGeometry y="192" width="600" height="16" as="geometry" />
        </mxCell>
        <mxCell id="4HUbsXlRWPGENK0A7-9K-84" value="&lt;div&gt;Eliminar (id&lt;span style=&quot;background-color: initial;&quot;&gt;) : Verdadero/Falso&lt;/span&gt;&lt;/div&gt;" style="text;html=1;strokeColor=none;fillColor=none;align=left;verticalAlign=middle;spacingLeft=4;spacingRight=4;overflow=hidden;rotatable=0;points=[[0,0.5],[1,0.5]];portConstraint=eastwest;" parent="4HUbsXlRWPGENK0A7-9K-74" vertex="1">
          <mxGeometry y="208" width="600" height="16" as="geometry" />
        </mxCell>
        <mxCell id="4HUbsXlRWPGENK0A7-9K-85" value="" style="line;strokeWidth=1;fillColor=none;align=left;verticalAlign=middle;spacingTop=-1;spacingLeft=3;spacingRight=3;rotatable=0;labelPosition=right;points=[];portConstraint=eastwest;" parent="4HUbsXlRWPGENK0A7-9K-74" vertex="1">
          <mxGeometry y="224" width="600" height="8" as="geometry" />
        </mxCell>
        <mxCell id="4HUbsXlRWPGENK0A7-9K-86" value="&lt;b&gt;Consultas&lt;/b&gt;" style="text;html=1;strokeColor=none;fillColor=none;align=center;verticalAlign=middle;spacingLeft=4;spacingRight=4;overflow=hidden;rotatable=0;points=[[0,0.5],[1,0.5]];portConstraint=eastwest;" parent="4HUbsXlRWPGENK0A7-9K-74" vertex="1">
          <mxGeometry y="232" width="600" height="20" as="geometry" />
        </mxCell>
        <mxCell id="4HUbsXlRWPGENK0A7-9K-87" value="BuscaPorId(id) : &amp;lt;Region&amp;gt;" style="text;html=1;strokeColor=none;fillColor=none;align=left;verticalAlign=middle;spacingLeft=4;spacingRight=4;overflow=hidden;rotatable=0;points=[[0,0.5],[1,0.5]];portConstraint=eastwest;" parent="4HUbsXlRWPGENK0A7-9K-74" vertex="1">
          <mxGeometry y="252" width="600" height="18" as="geometry" />
        </mxCell>
        <mxCell id="P3TvTHMaY8ZSfnASYMqM-46" value="BuscaPorNombreRegion(nombre) : &amp;lt;Region&amp;gt;" style="text;html=1;strokeColor=none;fillColor=none;align=left;verticalAlign=middle;spacingLeft=4;spacingRight=4;overflow=hidden;rotatable=0;points=[[0,0.5],[1,0.5]];portConstraint=eastwest;" parent="4HUbsXlRWPGENK0A7-9K-74" vertex="1">
          <mxGeometry y="270" width="600" height="20" as="geometry" />
        </mxCell>
        <mxCell id="4HUbsXlRWPGENK0A7-9K-88" value="&amp;lt;entidad&amp;gt;&lt;br&gt;&lt;b&gt;Comuna&lt;/b&gt;" style="swimlane;fontStyle=0;align=center;verticalAlign=top;childLayout=stackLayout;horizontal=1;startSize=40;horizontalStack=0;resizeParent=1;resizeParentMax=0;resizeLast=0;collapsible=0;marginBottom=0;html=1;fillColor=#E6FFCC;" parent="1" vertex="1">
          <mxGeometry x="770" y="630" width="600" height="290" as="geometry" />
        </mxCell>
        <mxCell id="4HUbsXlRWPGENK0A7-9K-89" value="Entidad que describe los datos relacionados a las comunas." style="text;html=1;strokeColor=none;fillColor=none;align=left;verticalAlign=middle;spacingLeft=4;spacingRight=4;overflow=hidden;rotatable=0;points=[[0,0.5],[1,0.5]];portConstraint=eastwest;" parent="4HUbsXlRWPGENK0A7-9K-88" vertex="1">
          <mxGeometry y="40" width="600" height="20" as="geometry" />
        </mxCell>
        <mxCell id="4HUbsXlRWPGENK0A7-9K-90" value="" style="line;strokeWidth=1;fillColor=none;align=left;verticalAlign=middle;spacingTop=-1;spacingLeft=3;spacingRight=3;rotatable=0;labelPosition=right;points=[];portConstraint=eastwest;" parent="4HUbsXlRWPGENK0A7-9K-88" vertex="1">
          <mxGeometry y="60" width="600" height="8" as="geometry" />
        </mxCell>
        <mxCell id="4HUbsXlRWPGENK0A7-9K-91" value="&lt;b&gt;Atributos&lt;/b&gt;" style="text;html=1;strokeColor=none;fillColor=none;align=center;verticalAlign=middle;spacingLeft=4;spacingRight=4;overflow=hidden;rotatable=0;points=[[0,0.5],[1,0.5]];portConstraint=eastwest;" parent="4HUbsXlRWPGENK0A7-9K-88" vertex="1">
          <mxGeometry y="68" width="600" height="20" as="geometry" />
        </mxCell>
        <mxCell id="4HUbsXlRWPGENK0A7-9K-92" value="Id - Guid&amp;nbsp;- Sirve como identificador único, generado automaticamente." style="text;html=1;strokeColor=none;fillColor=none;align=left;verticalAlign=middle;spacingLeft=4;spacingRight=4;overflow=hidden;rotatable=0;points=[[0,0.5],[1,0.5]];portConstraint=eastwest;" parent="4HUbsXlRWPGENK0A7-9K-88" vertex="1">
          <mxGeometry y="88" width="600" height="20" as="geometry" />
        </mxCell>
        <mxCell id="4HUbsXlRWPGENK0A7-9K-140" value="IdRegion - Guid&amp;nbsp;- Sirve como identificador, relacionado a una región." style="text;html=1;strokeColor=none;fillColor=none;align=left;verticalAlign=middle;spacingLeft=4;spacingRight=4;overflow=hidden;rotatable=0;points=[[0,0.5],[1,0.5]];portConstraint=eastwest;" parent="4HUbsXlRWPGENK0A7-9K-88" vertex="1">
          <mxGeometry y="108" width="600" height="20" as="geometry" />
        </mxCell>
        <mxCell id="4HUbsXlRWPGENK0A7-9K-93" value="Nombre - Texto - Nombre de la comuna." style="text;html=1;strokeColor=none;fillColor=none;align=left;verticalAlign=middle;spacingLeft=4;spacingRight=4;overflow=hidden;rotatable=0;points=[[0,0.5],[1,0.5]];portConstraint=eastwest;" parent="4HUbsXlRWPGENK0A7-9K-88" vertex="1">
          <mxGeometry y="128" width="600" height="20" as="geometry" />
        </mxCell>
        <mxCell id="4HUbsXlRWPGENK0A7-9K-94" value="" style="line;strokeWidth=1;fillColor=none;align=left;verticalAlign=middle;spacingTop=-1;spacingLeft=3;spacingRight=3;rotatable=0;labelPosition=right;points=[];portConstraint=eastwest;" parent="4HUbsXlRWPGENK0A7-9K-88" vertex="1">
          <mxGeometry y="148" width="600" height="8" as="geometry" />
        </mxCell>
        <mxCell id="4HUbsXlRWPGENK0A7-9K-95" value="&lt;b&gt;Comandos&lt;/b&gt;" style="text;html=1;strokeColor=none;fillColor=none;align=center;verticalAlign=middle;spacingLeft=4;spacingRight=4;overflow=hidden;rotatable=0;points=[[0,0.5],[1,0.5]];portConstraint=eastwest;" parent="4HUbsXlRWPGENK0A7-9K-88" vertex="1">
          <mxGeometry y="156" width="600" height="20" as="geometry" />
        </mxCell>
        <mxCell id="4HUbsXlRWPGENK0A7-9K-96" value="&lt;div&gt;Crear (nombrePais&lt;span style=&quot;background-color: initial;&quot;&gt;) : Verdadero/Falso&lt;/span&gt;&lt;/div&gt;" style="text;html=1;strokeColor=none;fillColor=none;align=left;verticalAlign=middle;spacingLeft=4;spacingRight=4;overflow=hidden;rotatable=0;points=[[0,0.5],[1,0.5]];portConstraint=eastwest;" parent="4HUbsXlRWPGENK0A7-9K-88" vertex="1">
          <mxGeometry y="176" width="600" height="16" as="geometry" />
        </mxCell>
        <mxCell id="4HUbsXlRWPGENK0A7-9K-97" value="&lt;div&gt;Modificar (id, nombre&lt;span style=&quot;background-color: initial;&quot;&gt;) : Verdadero/Falso&lt;/span&gt;&lt;/div&gt;" style="text;html=1;strokeColor=none;fillColor=none;align=left;verticalAlign=middle;spacingLeft=4;spacingRight=4;overflow=hidden;rotatable=0;points=[[0,0.5],[1,0.5]];portConstraint=eastwest;" parent="4HUbsXlRWPGENK0A7-9K-88" vertex="1">
          <mxGeometry y="192" width="600" height="16" as="geometry" />
        </mxCell>
        <mxCell id="4HUbsXlRWPGENK0A7-9K-98" value="&lt;div&gt;Eliminar (id&lt;span style=&quot;background-color: initial;&quot;&gt;) : Verdadero/Falso&lt;/span&gt;&lt;/div&gt;" style="text;html=1;strokeColor=none;fillColor=none;align=left;verticalAlign=middle;spacingLeft=4;spacingRight=4;overflow=hidden;rotatable=0;points=[[0,0.5],[1,0.5]];portConstraint=eastwest;" parent="4HUbsXlRWPGENK0A7-9K-88" vertex="1">
          <mxGeometry y="208" width="600" height="16" as="geometry" />
        </mxCell>
        <mxCell id="4HUbsXlRWPGENK0A7-9K-99" value="" style="line;strokeWidth=1;fillColor=none;align=left;verticalAlign=middle;spacingTop=-1;spacingLeft=3;spacingRight=3;rotatable=0;labelPosition=right;points=[];portConstraint=eastwest;" parent="4HUbsXlRWPGENK0A7-9K-88" vertex="1">
          <mxGeometry y="224" width="600" height="8" as="geometry" />
        </mxCell>
        <mxCell id="4HUbsXlRWPGENK0A7-9K-100" value="&lt;b&gt;Consultas&lt;/b&gt;" style="text;html=1;strokeColor=none;fillColor=none;align=center;verticalAlign=middle;spacingLeft=4;spacingRight=4;overflow=hidden;rotatable=0;points=[[0,0.5],[1,0.5]];portConstraint=eastwest;" parent="4HUbsXlRWPGENK0A7-9K-88" vertex="1">
          <mxGeometry y="232" width="600" height="20" as="geometry" />
        </mxCell>
        <mxCell id="4HUbsXlRWPGENK0A7-9K-101" value="BuscaPorId(id) : &amp;lt;Comuna&amp;gt;" style="text;html=1;strokeColor=none;fillColor=none;align=left;verticalAlign=middle;spacingLeft=4;spacingRight=4;overflow=hidden;rotatable=0;points=[[0,0.5],[1,0.5]];portConstraint=eastwest;" parent="4HUbsXlRWPGENK0A7-9K-88" vertex="1">
          <mxGeometry y="252" width="600" height="18" as="geometry" />
        </mxCell>
        <mxCell id="P3TvTHMaY8ZSfnASYMqM-47" value="BuscaPorNombreComuna(id) : &amp;lt;Comuna&amp;gt;" style="text;html=1;strokeColor=none;fillColor=none;align=left;verticalAlign=middle;spacingLeft=4;spacingRight=4;overflow=hidden;rotatable=0;points=[[0,0.5],[1,0.5]];portConstraint=eastwest;" parent="4HUbsXlRWPGENK0A7-9K-88" vertex="1">
          <mxGeometry y="270" width="600" height="20" as="geometry" />
        </mxCell>
        <mxCell id="4HUbsXlRWPGENK0A7-9K-102" value="&amp;lt;entidad&amp;gt;&lt;br&gt;&lt;b&gt;AyudasSociales&lt;/b&gt;" style="swimlane;fontStyle=0;align=center;verticalAlign=top;childLayout=stackLayout;horizontal=1;startSize=40;horizontalStack=0;resizeParent=1;resizeParentMax=0;resizeLast=0;collapsible=0;marginBottom=0;html=1;fillColor=#E6FFCC;" parent="1" vertex="1">
          <mxGeometry x="150" y="1100" width="600" height="318" as="geometry" />
        </mxCell>
        <mxCell id="4HUbsXlRWPGENK0A7-9K-103" value="Entidad que describe los datos relacionados a las ayudas sociales." style="text;html=1;strokeColor=none;fillColor=none;align=left;verticalAlign=middle;spacingLeft=4;spacingRight=4;overflow=hidden;rotatable=0;points=[[0,0.5],[1,0.5]];portConstraint=eastwest;" parent="4HUbsXlRWPGENK0A7-9K-102" vertex="1">
          <mxGeometry y="40" width="600" height="20" as="geometry" />
        </mxCell>
        <mxCell id="4HUbsXlRWPGENK0A7-9K-104" value="" style="line;strokeWidth=1;fillColor=none;align=left;verticalAlign=middle;spacingTop=-1;spacingLeft=3;spacingRight=3;rotatable=0;labelPosition=right;points=[];portConstraint=eastwest;" parent="4HUbsXlRWPGENK0A7-9K-102" vertex="1">
          <mxGeometry y="60" width="600" height="8" as="geometry" />
        </mxCell>
        <mxCell id="4HUbsXlRWPGENK0A7-9K-105" value="&lt;b&gt;Atributos&lt;/b&gt;" style="text;html=1;strokeColor=none;fillColor=none;align=center;verticalAlign=middle;spacingLeft=4;spacingRight=4;overflow=hidden;rotatable=0;points=[[0,0.5],[1,0.5]];portConstraint=eastwest;" parent="4HUbsXlRWPGENK0A7-9K-102" vertex="1">
          <mxGeometry y="68" width="600" height="20" as="geometry" />
        </mxCell>
        <mxCell id="4HUbsXlRWPGENK0A7-9K-106" value="Id - Guid&amp;nbsp;- Sirve como identificador único, generado automaticamente." style="text;html=1;strokeColor=none;fillColor=none;align=left;verticalAlign=middle;spacingLeft=4;spacingRight=4;overflow=hidden;rotatable=0;points=[[0,0.5],[1,0.5]];portConstraint=eastwest;" parent="4HUbsXlRWPGENK0A7-9K-102" vertex="1">
          <mxGeometry y="88" width="600" height="20" as="geometry" />
        </mxCell>
        <mxCell id="4HUbsXlRWPGENK0A7-9K-116" value="IdComuna - Guid&amp;nbsp;- Sirve como identificador, relacionado a una comuna." style="text;html=1;strokeColor=none;fillColor=none;align=left;verticalAlign=middle;spacingLeft=4;spacingRight=4;overflow=hidden;rotatable=0;points=[[0,0.5],[1,0.5]];portConstraint=eastwest;" parent="4HUbsXlRWPGENK0A7-9K-102" vertex="1">
          <mxGeometry y="108" width="600" height="20" as="geometry" />
        </mxCell>
        <mxCell id="4HUbsXlRWPGENK0A7-9K-107" value="Descripcion - Texto - Define la descripcion de la ayuda social." style="text;html=1;strokeColor=none;fillColor=none;align=left;verticalAlign=middle;spacingLeft=4;spacingRight=4;overflow=hidden;rotatable=0;points=[[0,0.5],[1,0.5]];portConstraint=eastwest;" parent="4HUbsXlRWPGENK0A7-9K-102" vertex="1">
          <mxGeometry y="128" width="600" height="20" as="geometry" />
        </mxCell>
        <mxCell id="4HUbsXlRWPGENK0A7-9K-136" value="Anio - Numero - Año en el cual es efectivo el servicio de ayuda." style="text;html=1;strokeColor=none;fillColor=none;align=left;verticalAlign=middle;spacingLeft=4;spacingRight=4;overflow=hidden;rotatable=0;points=[[0,0.5],[1,0.5]];portConstraint=eastwest;" parent="4HUbsXlRWPGENK0A7-9K-102" vertex="1">
          <mxGeometry y="148" width="600" height="20" as="geometry" />
        </mxCell>
        <mxCell id="4HUbsXlRWPGENK0A7-9K-108" value="" style="line;strokeWidth=1;fillColor=none;align=left;verticalAlign=middle;spacingTop=-1;spacingLeft=3;spacingRight=3;rotatable=0;labelPosition=right;points=[];portConstraint=eastwest;" parent="4HUbsXlRWPGENK0A7-9K-102" vertex="1">
          <mxGeometry y="168" width="600" height="8" as="geometry" />
        </mxCell>
        <mxCell id="4HUbsXlRWPGENK0A7-9K-109" value="&lt;b&gt;Comandos&lt;/b&gt;" style="text;html=1;strokeColor=none;fillColor=none;align=center;verticalAlign=middle;spacingLeft=4;spacingRight=4;overflow=hidden;rotatable=0;points=[[0,0.5],[1,0.5]];portConstraint=eastwest;" parent="4HUbsXlRWPGENK0A7-9K-102" vertex="1">
          <mxGeometry y="176" width="600" height="20" as="geometry" />
        </mxCell>
        <mxCell id="P3TvTHMaY8ZSfnASYMqM-49" value="&lt;div&gt;Crear (idComuna, descripcion, anio&lt;span style=&quot;background-color: initial;&quot;&gt;) : Verdadero/Falso&lt;/span&gt;&lt;/div&gt;" style="text;html=1;strokeColor=none;fillColor=#F8F8FA;align=left;verticalAlign=middle;spacingLeft=4;spacingRight=4;overflow=hidden;rotatable=0;points=[[0,0.5],[1,0.5]];portConstraint=eastwest;" parent="4HUbsXlRWPGENK0A7-9K-102" vertex="1">
          <mxGeometry y="196" width="600" height="16" as="geometry" />
        </mxCell>
        <mxCell id="4HUbsXlRWPGENK0A7-9K-113" value="" style="line;strokeWidth=1;fillColor=none;align=left;verticalAlign=middle;spacingTop=-1;spacingLeft=3;spacingRight=3;rotatable=0;labelPosition=right;points=[];portConstraint=eastwest;" parent="4HUbsXlRWPGENK0A7-9K-102" vertex="1">
          <mxGeometry y="212" width="600" height="8" as="geometry" />
        </mxCell>
        <mxCell id="4HUbsXlRWPGENK0A7-9K-114" value="&lt;b&gt;Consultas&lt;/b&gt;" style="text;html=1;strokeColor=none;fillColor=none;align=center;verticalAlign=middle;spacingLeft=4;spacingRight=4;overflow=hidden;rotatable=0;points=[[0,0.5],[1,0.5]];portConstraint=eastwest;" parent="4HUbsXlRWPGENK0A7-9K-102" vertex="1">
          <mxGeometry y="220" width="600" height="20" as="geometry" />
        </mxCell>
        <mxCell id="4HUbsXlRWPGENK0A7-9K-115" value="BuscaPorId(id) : &amp;lt;AyudasSociales&amp;gt;" style="text;html=1;strokeColor=none;fillColor=none;align=left;verticalAlign=middle;spacingLeft=4;spacingRight=4;overflow=hidden;rotatable=0;points=[[0,0.5],[1,0.5]];portConstraint=eastwest;" parent="4HUbsXlRWPGENK0A7-9K-102" vertex="1">
          <mxGeometry y="240" width="600" height="26" as="geometry" />
        </mxCell>
        <mxCell id="r7IAeEADwwYIqvJ-qnuJ-48" value="Busca_AnioAyudaSocial(id) : int: anio" style="text;html=1;strokeColor=none;fillColor=none;align=left;verticalAlign=middle;spacingLeft=4;spacingRight=4;overflow=hidden;rotatable=0;points=[[0,0.5],[1,0.5]];portConstraint=eastwest;" vertex="1" parent="4HUbsXlRWPGENK0A7-9K-102">
          <mxGeometry y="266" width="600" height="26" as="geometry" />
        </mxCell>
        <mxCell id="r7IAeEADwwYIqvJ-qnuJ-68" value="Busca_AnioAyudayAsignacionesUsuario (idUsuario) : Lista&amp;lt;AyudasSocialesConAsignaciones&amp;gt;" style="text;html=1;strokeColor=none;fillColor=none;align=left;verticalAlign=middle;spacingLeft=4;spacingRight=4;overflow=hidden;rotatable=0;points=[[0,0.5],[1,0.5]];portConstraint=eastwest;" vertex="1" parent="4HUbsXlRWPGENK0A7-9K-102">
          <mxGeometry y="292" width="600" height="26" as="geometry" />
        </mxCell>
        <mxCell id="4HUbsXlRWPGENK0A7-9K-119" value="" style="endArrow=classic;html=1;rounded=0;entryX=0;entryY=0.5;entryDx=0;entryDy=0;exitX=1;exitY=0.5;exitDx=0;exitDy=0;" parent="1" target="4HUbsXlRWPGENK0A7-9K-92" edge="1">
          <mxGeometry width="50" height="50" relative="1" as="geometry">
            <mxPoint x="560" y="278" as="sourcePoint" />
            <mxPoint x="900" y="370" as="targetPoint" />
          </mxGeometry>
        </mxCell>
        <mxCell id="4HUbsXlRWPGENK0A7-9K-143" value="" style="endArrow=classic;html=1;rounded=0;entryX=0;entryY=0.5;entryDx=0;entryDy=0;exitX=0;exitY=0.5;exitDx=0;exitDy=0;" parent="1" source="4HUbsXlRWPGENK0A7-9K-40" target="4HUbsXlRWPGENK0A7-9K-141" edge="1">
          <mxGeometry width="50" height="50" relative="1" as="geometry">
            <mxPoint x="590" y="40" as="sourcePoint" />
            <mxPoint x="810" y="180" as="targetPoint" />
            <Array as="points">
              <mxPoint x="690" y="-62" />
              <mxPoint x="690" y="360" />
            </Array>
          </mxGeometry>
        </mxCell>
        <mxCell id="4HUbsXlRWPGENK0A7-9K-144" value="" style="endArrow=classic;html=1;rounded=0;entryX=0;entryY=0.5;entryDx=0;entryDy=0;exitX=0;exitY=0.5;exitDx=0;exitDy=0;" parent="1" source="4HUbsXlRWPGENK0A7-9K-78" target="4HUbsXlRWPGENK0A7-9K-140" edge="1">
          <mxGeometry width="50" height="50" relative="1" as="geometry">
            <mxPoint x="760" y="530" as="sourcePoint" />
            <mxPoint x="810" y="480" as="targetPoint" />
            <Array as="points">
              <mxPoint x="640" y="340" />
              <mxPoint x="640" y="750" />
            </Array>
          </mxGeometry>
        </mxCell>
        <mxCell id="P3TvTHMaY8ZSfnASYMqM-1" value="&amp;lt;entidad&amp;gt;&lt;br&gt;&lt;b&gt;Aignaciones&lt;/b&gt;" style="swimlane;fontStyle=0;align=center;verticalAlign=top;childLayout=stackLayout;horizontal=1;startSize=40;horizontalStack=0;resizeParent=1;resizeParentMax=0;resizeLast=0;collapsible=0;marginBottom=0;html=1;fillColor=#E6FFCC;" parent="1" vertex="1">
          <mxGeometry x="950" y="1100" width="600" height="318" as="geometry" />
        </mxCell>
        <mxCell id="P3TvTHMaY8ZSfnASYMqM-2" value="Entidad que describe los datos relacionados a las ayudas sociales." style="text;html=1;strokeColor=none;fillColor=none;align=left;verticalAlign=middle;spacingLeft=4;spacingRight=4;overflow=hidden;rotatable=0;points=[[0,0.5],[1,0.5]];portConstraint=eastwest;" parent="P3TvTHMaY8ZSfnASYMqM-1" vertex="1">
          <mxGeometry y="40" width="600" height="20" as="geometry" />
        </mxCell>
        <mxCell id="P3TvTHMaY8ZSfnASYMqM-3" value="" style="line;strokeWidth=1;fillColor=none;align=left;verticalAlign=middle;spacingTop=-1;spacingLeft=3;spacingRight=3;rotatable=0;labelPosition=right;points=[];portConstraint=eastwest;" parent="P3TvTHMaY8ZSfnASYMqM-1" vertex="1">
          <mxGeometry y="60" width="600" height="8" as="geometry" />
        </mxCell>
        <mxCell id="P3TvTHMaY8ZSfnASYMqM-4" value="&lt;b&gt;Atributos&lt;/b&gt;" style="text;html=1;strokeColor=none;fillColor=none;align=center;verticalAlign=middle;spacingLeft=4;spacingRight=4;overflow=hidden;rotatable=0;points=[[0,0.5],[1,0.5]];portConstraint=eastwest;" parent="P3TvTHMaY8ZSfnASYMqM-1" vertex="1">
          <mxGeometry y="68" width="600" height="20" as="geometry" />
        </mxCell>
        <mxCell id="P3TvTHMaY8ZSfnASYMqM-5" value="Id - Guid&amp;nbsp;- Sirve como identificador único, generado automaticamente." style="text;html=1;strokeColor=none;fillColor=none;align=left;verticalAlign=middle;spacingLeft=4;spacingRight=4;overflow=hidden;rotatable=0;points=[[0,0.5],[1,0.5]];portConstraint=eastwest;" parent="P3TvTHMaY8ZSfnASYMqM-1" vertex="1">
          <mxGeometry y="88" width="600" height="20" as="geometry" />
        </mxCell>
        <mxCell id="P3TvTHMaY8ZSfnASYMqM-6" value="IdUsuario - Guid&amp;nbsp;- Sirve como identificador, relacionado a un usuario." style="text;html=1;strokeColor=none;fillColor=none;align=left;verticalAlign=middle;spacingLeft=4;spacingRight=4;overflow=hidden;rotatable=0;points=[[0,0.5],[1,0.5]];portConstraint=eastwest;" parent="P3TvTHMaY8ZSfnASYMqM-1" vertex="1">
          <mxGeometry y="108" width="600" height="20" as="geometry" />
        </mxCell>
        <mxCell id="P3TvTHMaY8ZSfnASYMqM-14" value="IdAyudaSocial - Guid&amp;nbsp;- Sirve como identificador, relacionado a una ayuda social." style="text;html=1;strokeColor=none;fillColor=none;align=left;verticalAlign=middle;spacingLeft=4;spacingRight=4;overflow=hidden;rotatable=0;points=[[0,0.5],[1,0.5]];portConstraint=eastwest;" parent="P3TvTHMaY8ZSfnASYMqM-1" vertex="1">
          <mxGeometry y="128" width="600" height="20" as="geometry" />
        </mxCell>
        <mxCell id="P3TvTHMaY8ZSfnASYMqM-8" value="FechaAsignacion - Fecha - Referencia de la fecha cuando se asigno la ayuda social a un usuario." style="text;html=1;strokeColor=none;fillColor=none;align=left;verticalAlign=middle;spacingLeft=4;spacingRight=4;overflow=hidden;rotatable=0;points=[[0,0.5],[1,0.5]];portConstraint=eastwest;" parent="P3TvTHMaY8ZSfnASYMqM-1" vertex="1">
          <mxGeometry y="148" width="600" height="20" as="geometry" />
        </mxCell>
        <mxCell id="P3TvTHMaY8ZSfnASYMqM-9" value="" style="line;strokeWidth=1;fillColor=none;align=left;verticalAlign=middle;spacingTop=-1;spacingLeft=3;spacingRight=3;rotatable=0;labelPosition=right;points=[];portConstraint=eastwest;" parent="P3TvTHMaY8ZSfnASYMqM-1" vertex="1">
          <mxGeometry y="168" width="600" height="8" as="geometry" />
        </mxCell>
        <mxCell id="P3TvTHMaY8ZSfnASYMqM-10" value="&lt;b&gt;Comandos&lt;/b&gt;" style="text;html=1;strokeColor=none;fillColor=none;align=center;verticalAlign=middle;spacingLeft=4;spacingRight=4;overflow=hidden;rotatable=0;points=[[0,0.5],[1,0.5]];portConstraint=eastwest;" parent="P3TvTHMaY8ZSfnASYMqM-1" vertex="1">
          <mxGeometry y="176" width="600" height="20" as="geometry" />
        </mxCell>
        <mxCell id="r7IAeEADwwYIqvJ-qnuJ-4" value="&lt;div&gt;Crear (Asignaciones&lt;span style=&quot;background-color: initial;&quot;&gt;) : Verdadero/Falso&lt;/span&gt;&lt;/div&gt;" style="text;html=1;strokeColor=none;fillColor=#F8F8FA;align=left;verticalAlign=middle;spacingLeft=4;spacingRight=4;overflow=hidden;rotatable=0;points=[[0,0.5],[1,0.5]];portConstraint=eastwest;" vertex="1" parent="P3TvTHMaY8ZSfnASYMqM-1">
          <mxGeometry y="196" width="600" height="16" as="geometry" />
        </mxCell>
        <mxCell id="P3TvTHMaY8ZSfnASYMqM-11" value="" style="line;strokeWidth=1;fillColor=none;align=left;verticalAlign=middle;spacingTop=-1;spacingLeft=3;spacingRight=3;rotatable=0;labelPosition=right;points=[];portConstraint=eastwest;" parent="P3TvTHMaY8ZSfnASYMqM-1" vertex="1">
          <mxGeometry y="212" width="600" height="8" as="geometry" />
        </mxCell>
        <mxCell id="P3TvTHMaY8ZSfnASYMqM-12" value="&lt;b&gt;Consultas&lt;/b&gt;" style="text;html=1;strokeColor=none;fillColor=none;align=center;verticalAlign=middle;spacingLeft=4;spacingRight=4;overflow=hidden;rotatable=0;points=[[0,0.5],[1,0.5]];portConstraint=eastwest;" parent="P3TvTHMaY8ZSfnASYMqM-1" vertex="1">
          <mxGeometry y="220" width="600" height="20" as="geometry" />
        </mxCell>
        <mxCell id="r7IAeEADwwYIqvJ-qnuJ-6" value="BuscaPorId(id) : &amp;lt;Asignaciones&amp;gt;" style="text;html=1;strokeColor=none;fillColor=none;align=left;verticalAlign=middle;spacingLeft=4;spacingRight=4;overflow=hidden;rotatable=0;points=[[0,0.5],[1,0.5]];portConstraint=eastwest;" vertex="1" parent="P3TvTHMaY8ZSfnASYMqM-1">
          <mxGeometry y="240" width="600" height="26" as="geometry" />
        </mxCell>
        <mxCell id="r7IAeEADwwYIqvJ-qnuJ-66" value="BuscaPorIdUsuario(idUsuario) : Lista&amp;lt;&amp;lt;Asignaciones&amp;gt;&lt;br&gt;&amp;gt;" style="text;html=1;strokeColor=none;fillColor=none;align=left;verticalAlign=middle;spacingLeft=4;spacingRight=4;overflow=hidden;rotatable=0;points=[[0,0.5],[1,0.5]];portConstraint=eastwest;" vertex="1" parent="P3TvTHMaY8ZSfnASYMqM-1">
          <mxGeometry y="266" width="600" height="26" as="geometry" />
        </mxCell>
        <mxCell id="r7IAeEADwwYIqvJ-qnuJ-49" value="Busca_AyudaSocialUsuario(id, idUsuario) : &amp;lt;AyudasSociales&amp;gt;" style="text;html=1;strokeColor=none;fillColor=none;align=left;verticalAlign=middle;spacingLeft=4;spacingRight=4;overflow=hidden;rotatable=0;points=[[0,0.5],[1,0.5]];portConstraint=eastwest;" vertex="1" parent="P3TvTHMaY8ZSfnASYMqM-1">
          <mxGeometry y="292" width="600" height="26" as="geometry" />
        </mxCell>
        <mxCell id="P3TvTHMaY8ZSfnASYMqM-48" value="" style="endArrow=classic;html=1;rounded=0;entryX=0;entryY=0.5;entryDx=0;entryDy=0;exitX=0;exitY=0.5;exitDx=0;exitDy=0;" parent="1" source="4HUbsXlRWPGENK0A7-9K-92" target="4HUbsXlRWPGENK0A7-9K-116" edge="1">
          <mxGeometry width="50" height="50" relative="1" as="geometry">
            <mxPoint x="770" y="980" as="sourcePoint" />
            <mxPoint x="820" y="930" as="targetPoint" />
            <Array as="points">
              <mxPoint y="730" />
              <mxPoint y="1218" />
            </Array>
          </mxGeometry>
        </mxCell>
        <mxCell id="r7IAeEADwwYIqvJ-qnuJ-11" value="&amp;lt;entidad&amp;gt;&lt;br&gt;&lt;b&gt;ServiciosDeDomino&lt;/b&gt;" style="swimlane;fontStyle=0;align=center;verticalAlign=top;childLayout=stackLayout;horizontal=1;startSize=40;horizontalStack=0;resizeParent=1;resizeParentMax=0;resizeLast=0;collapsible=0;marginBottom=0;html=1;fillColor=#E6FFCC;" vertex="1" parent="1">
          <mxGeometry x="-860" y="1210" width="590" height="268" as="geometry" />
        </mxCell>
        <mxCell id="r7IAeEADwwYIqvJ-qnuJ-12" value="Toda funcionalidad que utiliza mas de una entidad o no pertenece a ninguna." style="text;html=1;strokeColor=none;fillColor=none;align=left;verticalAlign=middle;spacingLeft=4;spacingRight=4;overflow=hidden;rotatable=0;points=[[0,0.5],[1,0.5]];portConstraint=eastwest;" vertex="1" parent="r7IAeEADwwYIqvJ-qnuJ-11">
          <mxGeometry y="40" width="590" height="20" as="geometry" />
        </mxCell>
        <mxCell id="r7IAeEADwwYIqvJ-qnuJ-13" value="" style="line;strokeWidth=1;fillColor=none;align=left;verticalAlign=middle;spacingTop=-1;spacingLeft=3;spacingRight=3;rotatable=0;labelPosition=right;points=[];portConstraint=eastwest;" vertex="1" parent="r7IAeEADwwYIqvJ-qnuJ-11">
          <mxGeometry y="60" width="590" height="8" as="geometry" />
        </mxCell>
        <mxCell id="r7IAeEADwwYIqvJ-qnuJ-14" value="&lt;b&gt;Atributos&lt;/b&gt;" style="text;html=1;strokeColor=none;fillColor=none;align=center;verticalAlign=middle;spacingLeft=4;spacingRight=4;overflow=hidden;rotatable=0;points=[[0,0.5],[1,0.5]];portConstraint=eastwest;" vertex="1" parent="r7IAeEADwwYIqvJ-qnuJ-11">
          <mxGeometry y="68" width="590" height="20" as="geometry" />
        </mxCell>
        <mxCell id="r7IAeEADwwYIqvJ-qnuJ-15" value="" style="line;strokeWidth=1;fillColor=none;align=left;verticalAlign=middle;spacingTop=-1;spacingLeft=3;spacingRight=3;rotatable=0;labelPosition=right;points=[];portConstraint=eastwest;" vertex="1" parent="r7IAeEADwwYIqvJ-qnuJ-11">
          <mxGeometry y="88" width="590" height="8" as="geometry" />
        </mxCell>
        <mxCell id="r7IAeEADwwYIqvJ-qnuJ-16" value="&lt;b&gt;Comandos&lt;/b&gt;" style="text;html=1;strokeColor=none;fillColor=none;align=center;verticalAlign=middle;spacingLeft=4;spacingRight=4;overflow=hidden;rotatable=0;points=[[0,0.5],[1,0.5]];portConstraint=eastwest;" vertex="1" parent="r7IAeEADwwYIqvJ-qnuJ-11">
          <mxGeometry y="96" width="590" height="20" as="geometry" />
        </mxCell>
        <mxCell id="r7IAeEADwwYIqvJ-qnuJ-46" value="&lt;div&gt;RegistrarUsuario&amp;nbsp;(UsuarioViewModel&lt;span style=&quot;background-color: initial;&quot;&gt;) : Verdadero/Falso&lt;/span&gt;&lt;/div&gt;" style="text;html=1;strokeColor=none;fillColor=none;align=left;verticalAlign=middle;spacingLeft=4;spacingRight=4;overflow=hidden;rotatable=0;points=[[0,0.5],[1,0.5]];portConstraint=eastwest;" vertex="1" parent="r7IAeEADwwYIqvJ-qnuJ-11">
          <mxGeometry y="116" width="590" height="24" as="geometry" />
        </mxCell>
        <mxCell id="r7IAeEADwwYIqvJ-qnuJ-23" value="&lt;div&gt;CrearAyudaSocialAdministrador&amp;nbsp;(CrearAyudasSocialesViewModel&lt;span style=&quot;background-color: initial;&quot;&gt;) : Verdadero/Falso&lt;/span&gt;&lt;/div&gt;" style="text;html=1;strokeColor=none;fillColor=none;align=left;verticalAlign=middle;spacingLeft=4;spacingRight=4;overflow=hidden;rotatable=0;points=[[0,0.5],[1,0.5]];portConstraint=eastwest;" vertex="1" parent="r7IAeEADwwYIqvJ-qnuJ-11">
          <mxGeometry y="140" width="590" height="20" as="geometry" />
        </mxCell>
        <mxCell id="r7IAeEADwwYIqvJ-qnuJ-47" value="&lt;div&gt;RegistrarAsignacion&amp;nbsp;(RegistrarAsignacionViewModel&lt;span style=&quot;background-color: initial;&quot;&gt;) : Verdadero/Falso&lt;/span&gt;&lt;/div&gt;" style="text;html=1;strokeColor=none;fillColor=none;align=left;verticalAlign=middle;spacingLeft=4;spacingRight=4;overflow=hidden;rotatable=0;points=[[0,0.5],[1,0.5]];portConstraint=eastwest;" vertex="1" parent="r7IAeEADwwYIqvJ-qnuJ-11">
          <mxGeometry y="160" width="590" height="20" as="geometry" />
        </mxCell>
        <mxCell id="r7IAeEADwwYIqvJ-qnuJ-19" value="" style="line;strokeWidth=1;fillColor=none;align=left;verticalAlign=middle;spacingTop=-1;spacingLeft=3;spacingRight=3;rotatable=0;labelPosition=right;points=[];portConstraint=eastwest;" vertex="1" parent="r7IAeEADwwYIqvJ-qnuJ-11">
          <mxGeometry y="180" width="590" height="8" as="geometry" />
        </mxCell>
        <mxCell id="r7IAeEADwwYIqvJ-qnuJ-20" value="&lt;b&gt;Consultas&lt;/b&gt;" style="text;html=1;strokeColor=none;fillColor=none;align=center;verticalAlign=middle;spacingLeft=4;spacingRight=4;overflow=hidden;rotatable=0;points=[[0,0.5],[1,0.5]];portConstraint=eastwest;" vertex="1" parent="r7IAeEADwwYIqvJ-qnuJ-11">
          <mxGeometry y="188" width="590" height="20" as="geometry" />
        </mxCell>
        <mxCell id="r7IAeEADwwYIqvJ-qnuJ-24" value="&lt;div&gt;LoginUsuario&amp;nbsp;(rut, contrasena&lt;span style=&quot;background-color: initial;&quot;&gt;) : &amp;lt;DatosUsuario&amp;gt;&lt;/span&gt;&lt;/div&gt;" style="text;html=1;strokeColor=none;fillColor=none;align=left;verticalAlign=middle;spacingLeft=4;spacingRight=4;overflow=hidden;rotatable=0;points=[[0,0.5],[1,0.5]];portConstraint=eastwest;" vertex="1" parent="r7IAeEADwwYIqvJ-qnuJ-11">
          <mxGeometry y="208" width="590" height="20" as="geometry" />
        </mxCell>
        <mxCell id="r7IAeEADwwYIqvJ-qnuJ-67" value="&lt;div&gt;LoginUsuario&amp;nbsp;(rut, contrasena&lt;span style=&quot;background-color: initial;&quot;&gt;) : &amp;lt;DatosUsuario&amp;gt;&lt;/span&gt;&lt;/div&gt;" style="text;html=1;strokeColor=none;fillColor=none;align=left;verticalAlign=middle;spacingLeft=4;spacingRight=4;overflow=hidden;rotatable=0;points=[[0,0.5],[1,0.5]];portConstraint=eastwest;" vertex="1" parent="r7IAeEADwwYIqvJ-qnuJ-11">
          <mxGeometry y="228" width="590" height="20" as="geometry" />
        </mxCell>
        <mxCell id="r7IAeEADwwYIqvJ-qnuJ-65" value="&lt;div&gt;VerAyudasSocialesVigentePorAnio&amp;nbsp;(idUsuario&lt;span style=&quot;background-color: initial;&quot;&gt;) : &amp;lt;AyudasSocialesAsignacionesViewModel&amp;gt;&lt;/span&gt;&lt;/div&gt;" style="text;html=1;strokeColor=none;fillColor=none;align=left;verticalAlign=middle;spacingLeft=4;spacingRight=4;overflow=hidden;rotatable=0;points=[[0,0.5],[1,0.5]];portConstraint=eastwest;" vertex="1" parent="r7IAeEADwwYIqvJ-qnuJ-11">
          <mxGeometry y="248" width="590" height="20" as="geometry" />
        </mxCell>
      </root>
    </mxGraphModel>
  </diagram>
</mxfile>
